<svg width="16" height="16" viewBox="0 0 16 16" fill="none" xmlns="http://www.w3.org/2000/svg">
<rect x="0.5" y="0.5" width="15" height="15" rx="3.5" fill="#0A9418" fill-opacity="0.75" stroke="#06600F"/>
<path d="M7.56251 7.052C7.56251 7.29354 7.50213 7.50773 7.38136 7.69458C7.26059 7.88143 7.09425 8.03068 6.88234 8.14233C7.12387 8.25854 7.31528 8.41919 7.45656 8.62427C7.59783 8.82707 7.66847 9.06632 7.66847 9.34204C7.66847 9.7841 7.51808 10.1339 7.2173 10.3914C6.91652 10.6466 6.5075 10.7742 5.99025 10.7742C5.473 10.7742 5.06284 10.6454 4.75978 10.3879C4.45672 10.1305 4.30519 9.78182 4.30519 9.34204C4.30519 9.06632 4.37583 8.82593 4.5171 8.62085C4.65838 8.41577 4.84865 8.25627 5.0879 8.14233C4.87599 8.03068 4.70965 7.88143 4.58888 7.69458C4.47039 7.50773 4.41115 7.29354 4.41115 7.052C4.41115 6.62817 4.55242 6.29093 4.83498 6.04028C5.11753 5.78735 5.50148 5.66089 5.98683 5.66089C6.4699 5.66089 6.85272 5.78621 7.13527 6.03687C7.4201 6.28524 7.56251 6.62362 7.56251 7.052ZM6.67726 9.27026C6.67726 9.05379 6.6146 8.88062 6.48927 8.75073C6.36395 8.62085 6.19533 8.55591 5.98341 8.55591C5.77378 8.55591 5.6063 8.62085 5.48097 8.75073C5.35565 8.87834 5.29298 9.05151 5.29298 9.27026C5.29298 9.48218 5.35451 9.65308 5.47755 9.78296C5.6006 9.91284 5.7715 9.97778 5.99025 9.97778C6.20444 9.97778 6.37192 9.91512 6.49269 9.78979C6.61574 9.66447 6.67726 9.49129 6.67726 9.27026ZM6.57472 7.09985C6.57472 6.90617 6.52345 6.75122 6.42091 6.63501C6.31837 6.51652 6.17368 6.45728 5.98683 6.45728C5.80226 6.45728 5.65871 6.51424 5.55617 6.62817C5.45363 6.74211 5.40236 6.89933 5.40236 7.09985C5.40236 7.2981 5.45363 7.4576 5.55617 7.57837C5.65871 7.69914 5.8034 7.75952 5.99025 7.75952C6.1771 7.75952 6.32065 7.69914 6.42091 7.57837C6.52345 7.4576 6.57472 7.2981 6.57472 7.09985ZM11.582 7.052C11.582 7.29354 11.5217 7.50773 11.4009 7.69458C11.2801 7.88143 11.1138 8.03068 10.9019 8.14233C11.1434 8.25854 11.3348 8.41919 11.4761 8.62427C11.6174 8.82707 11.688 9.06632 11.688 9.34204C11.688 9.7841 11.5376 10.1339 11.2368 10.3914C10.936 10.6466 10.527 10.7742 10.0098 10.7742C9.49253 10.7742 9.08237 10.6454 8.77931 10.3879C8.47625 10.1305 8.32472 9.78182 8.32472 9.34204C8.32472 9.06632 8.39536 8.82593 8.53664 8.62085C8.67791 8.41577 8.86818 8.25627 9.10744 8.14233C8.89552 8.03068 8.72918 7.88143 8.60841 7.69458C8.48992 7.50773 8.43068 7.29354 8.43068 7.052C8.43068 6.62817 8.57195 6.29093 8.85451 6.04028C9.13706 5.78735 9.52101 5.66089 10.0064 5.66089C10.4894 5.66089 10.8722 5.78621 11.1548 6.03687C11.4396 6.28524 11.582 6.62362 11.582 7.052ZM10.6968 9.27026C10.6968 9.05379 10.6341 8.88062 10.5088 8.75073C10.3835 8.62085 10.2149 8.55591 10.0029 8.55591C9.79331 8.55591 9.62583 8.62085 9.5005 8.75073C9.37518 8.87834 9.31251 9.05151 9.31251 9.27026C9.31251 9.48218 9.37404 9.65308 9.49708 9.78296C9.62013 9.91284 9.79103 9.97778 10.0098 9.97778C10.224 9.97778 10.3915 9.91512 10.5122 9.78979C10.6353 9.66447 10.6968 9.49129 10.6968 9.27026ZM10.5943 7.09985C10.5943 6.90617 10.543 6.75122 10.4404 6.63501C10.3379 6.51652 10.1932 6.45728 10.0064 6.45728C9.82179 6.45728 9.67824 6.51424 9.5757 6.62817C9.47316 6.74211 9.42189 6.89933 9.42189 7.09985C9.42189 7.2981 9.47316 7.4576 9.5757 7.57837C9.67824 7.69914 9.82293 7.75952 10.0098 7.75952C10.1966 7.75952 10.3402 7.69914 10.4404 7.57837C10.543 7.4576 10.5943 7.2981 10.5943 7.09985Z" fill="white"/>
</svg>
